<svg width="171.000000" height="64.000000" viewBox="0 0 171 64" fill="none" xmlns="http://www.w3.org/2000/svg" xmlns:xlink="http://www.w3.org/1999/xlink">
	<desc>
			Created with Pixso.
	</desc>
	<defs/>
	<path id="Shape" d="M165.811 18.1084C167.31 20.0264 168.376 22.2261 169.142 24.6572L169.192 24.5908C169.842 27.0386 170.275 29.6846 170.275 32.5288C170.275 35.3901 169.942 38.0361 169.209 40.4668C168.443 42.8979 167.377 45.1309 165.877 46.9165C164.362 48.7192 162.546 50.1909 160.297 51.2495C158.798 51.8945 157.182 52.4238 155.466 52.6387C155.466 52.6387 152.251 53.1514 148.503 52.4238C147.221 52.1924 146.038 51.8945 144.955 51.3652C144.855 51.3652 144.855 51.2495 144.722 51.2495C144.722 51.1504 144.622 51.1504 144.622 51.1504L144.539 51.1504C143.873 50.8359 143.339 50.522 142.706 50.0918C141.291 49.1328 140.125 48.0908 139.042 46.8174C137.659 44.9985 136.477 42.7988 135.71 40.3677C134.961 37.937 134.628 35.2905 134.628 32.4297C134.628 29.6846 134.961 26.9395 135.694 24.5249C136.46 21.978 137.526 19.8779 139.025 17.9595C140.524 16.1733 142.357 14.6851 144.522 13.6265C146.521 12.7002 148.787 12.1548 151.352 12.0391C153.084 11.9399 154.583 12.0391 155.749 12.2373L157.332 12.5684C157.332 12.6841 157.449 12.6841 157.532 12.6841C157.648 12.7998 157.765 12.7998 157.865 12.7998C158.082 12.7998 158.315 12.9321 158.315 12.9321C158.948 13.0972 159.697 13.4282 160.314 13.7588C162.479 14.8008 164.312 16.1899 165.811 18.1084ZM144.039 26.9727C144.472 25.3188 145.005 23.7148 145.755 22.4414C146.504 21.1846 147.471 20.126 148.537 19.3984C149.619 18.6543 150.902 18.2407 152.285 18.2407C153.684 18.2407 154.867 18.5386 155.949 19.2827C157.015 20.0103 157.865 20.9365 158.615 22.127C159.364 23.4004 159.914 24.7729 160.33 26.46C160.78 28.1465 160.997 29.8501 160.997 31.752L160.997 32.3804C160.997 34.2822 160.78 36.1841 160.464 37.8706C160.031 39.5742 159.497 41.0459 158.748 42.3359C157.998 43.5928 157.032 44.5356 155.949 45.2798C154.883 46.0239 153.617 46.3379 152.201 46.3379C150.802 46.3379 149.536 46.0073 148.453 45.2798C147.371 44.5356 146.405 43.5928 145.655 42.3027C144.889 41.0459 144.356 39.5742 143.922 37.8706C143.506 36.1841 143.389 34.2822 143.389 32.3804C143.506 30.561 143.723 28.6758 144.056 26.9893L144.039 26.9727ZM120.535 53.002L116.371 57.7485L115.938 58.1782L116.371 63.9995L122.8 63.9995L129.564 56.4917L129.564 32.6113L129.364 30.792L120.535 35.3232L120.535 53.002Z" clip-rule="evenodd" fill="#FFFFFF" fill-opacity="1.000000" fill-rule="evenodd"/>
	<path id="Shape" d="M66.3253 10.8613L62.151 6.24854L61.6 5.85596L62.0341 0L68.4626 0.0981445L75.3752 7.52441L75.3752 31.6841L75.1748 33.0254L66.3253 28.4453L66.3253 10.8613ZM128.906 23.8325C128.138 21.4282 127.07 19.2524 125.567 17.355C124.064 15.4575 122.227 14.0835 120.057 13.0532C119.439 12.7261 118.688 12.3989 118.053 12.2354C118.053 12.2354 117.819 12.1045 117.602 12.1045C117.502 12.1045 117.402 12.1045 117.268 11.9897C117.185 11.9897 117.068 11.9897 117.068 11.8755L115.482 11.5483C114.313 11.3521 112.81 11.2539 111.074 11.3521C108.502 11.4663 106.232 12.0063 104.228 12.9224C102.057 13.9692 100.221 15.4414 98.7178 17.208C97.2151 19.1055 96.1465 21.1826 95.3784 23.7017C94.6437 26.0898 94.3265 28.8052 94.3265 31.5205C94.3265 34.3506 94.6604 36.9678 95.3951 39.3721C96.1632 41.7769 97.3487 43.9521 98.7345 45.7515C99.8199 47.0107 101.005 48.0415 102.408 48.9902C103.042 49.4155 103.577 49.7261 104.245 50.0371L104.328 50.0371C104.328 50.0371 104.445 50.0371 104.445 50.1353C104.545 50.1353 104.545 50.2495 104.662 50.2495C105.731 50.7729 106.916 51.0674 108.202 51.2964C111.959 52.0161 115.181 51.5093 115.181 51.5093C116.901 51.2964 118.521 50.7729 120.023 50.1353C122.278 49.0884 124.114 47.6323 125.617 45.8496C127.12 44.083 128.188 41.875 128.956 39.4702C129.691 37.0659 130.025 34.4487 130.025 31.6187C130.025 28.8052 129.691 26.188 128.94 23.7671L128.906 23.8325ZM80.184 11.5161L89.2004 11.5161L89.2004 52.0005L80.184 52.0005L80.184 11.5161ZM105.564 21.6406C104.812 22.8999 104.278 24.4868 103.861 26.1226L103.877 26.1387C103.443 27.8071 103.326 29.6719 103.209 31.4712C103.209 33.3525 103.31 35.2334 103.744 36.9019C104.178 38.5869 104.712 40.0425 105.463 41.2856C106.215 42.5615 107.183 43.4941 108.252 44.23C109.337 44.9497 110.623 45.2769 112.042 45.2769C113.428 45.2769 114.73 44.9663 115.799 44.23C116.868 43.4941 117.836 42.5615 118.571 41.3184C119.322 40.0425 119.873 38.5869 120.291 36.9019C120.625 35.2334 120.858 33.3525 120.858 31.4712L120.858 30.8496C120.858 28.9688 120.625 27.2837 120.19 25.6152C119.756 23.9468 119.222 22.5894 118.471 21.3296C117.719 20.1519 116.851 19.2358 115.799 18.5161C114.714 17.7803 113.528 17.4858 112.126 17.4858C110.706 17.4858 109.437 17.8945 108.369 18.6309C107.283 19.3506 106.315 20.3975 105.564 21.6406Z" clip-rule="evenodd" fill="#FFFFFF" fill-opacity="1.000000" fill-rule="evenodd"/>
	<path id="Shape" d="M84.6173 2C82.3257 2 80.4658 3.86816 80.4658 6.16992C80.4658 8.58838 82.3257 10.4399 84.6173 10.3398C86.9089 10.3398 88.7688 8.47168 88.7688 6.16992C88.7688 3.86816 86.9089 2 84.6173 2ZM30.299 18.9966C31.7935 20.9312 32.8563 23.1494 33.6202 25.6016L33.6534 25.5347C34.4007 28.0034 34.7328 30.6719 34.7328 33.541C34.7328 36.4263 34.4007 39.0952 33.67 41.5469C32.9061 43.999 31.8434 46.2505 30.3488 48.0522C28.8543 49.8701 27.0276 51.3545 24.7858 52.4219C23.2913 53.0728 21.6805 53.6064 19.97 53.8232C19.97 53.8232 16.7651 54.3403 13.0287 53.6064C11.7501 53.3726 10.571 53.0728 9.49164 52.5386C9.392 52.5386 9.392 52.5386 9.29239 52.4219C9.29239 52.3218 9.17615 52.3218 9.17615 52.3218L9.09311 52.3218C8.42886 52.0049 7.89746 51.688 7.26645 51.2544C5.87155 50.2871 4.6925 49.2363 3.61313 47.9521C2.11859 46.1172 1.05579 43.999 0.291901 41.4468C-0.455353 38.9951 -0.787476 36.3262 -0.787476 33.4409C-0.787476 30.6719 -0.455353 27.9033 0.275299 25.4683C1.03918 22.8994 2.10196 20.7812 3.59653 18.8462C5.09106 17.0449 6.91772 15.5439 9.07651 14.4761C11.0692 13.542 13.3276 12.9917 15.885 12.875C17.612 12.7749 19.1065 12.875 20.269 13.0752L21.8465 13.4087C21.8465 13.5254 21.9628 13.5254 22.0458 13.5254C22.1786 13.6421 22.2783 13.6421 22.3779 13.6421C22.5938 13.6421 22.8263 13.7759 22.8263 13.7759C23.4573 13.9424 24.2046 14.2759 24.819 14.6099C26.9778 15.6606 28.8044 17.0615 30.299 18.9966ZM70.8343 18.9966C72.3288 20.9312 73.3916 23.1494 74.1555 25.6016L74.2053 25.5347C74.8529 28.0034 75.2681 30.6719 75.2681 33.541C75.2681 36.4263 74.9526 39.0952 74.2219 41.5469C73.458 43.999 72.3952 46.2505 70.9007 48.0522C69.3896 49.8701 67.5795 51.3545 65.3377 52.4219C63.8431 53.0728 62.2324 53.6064 60.5219 53.8232C60.5219 53.8232 57.317 54.3403 53.5806 53.6064C52.2853 53.3726 51.1229 53.0728 50.0435 52.5386C49.9439 52.5386 49.9439 52.4219 49.811 52.4219C49.811 52.3218 49.7114 52.3218 49.7114 52.3218C49.7114 52.3218 48.4327 51.688 47.8017 51.2544C46.3902 50.2871 45.2278 49.2363 44.1484 47.9521C42.7535 46.1172 41.5911 43.8989 40.8272 41.4468C40.0799 38.9951 39.7478 36.3262 39.7478 33.4409C39.7478 30.6719 40.0799 27.9033 40.8106 25.4683C41.5745 22.8994 42.6373 20.7812 44.1318 18.8462C45.6263 17.0449 47.453 15.5439 49.6118 14.4761C51.6045 13.542 53.8629 12.9917 56.4203 12.875C58.1307 12.7749 59.6252 12.875 60.7876 13.0752L62.3818 13.4087C62.3818 13.5254 62.4814 13.5254 62.5811 13.5254C62.6973 13.6421 62.8136 13.6421 62.9132 13.6421C63.1291 13.6421 63.3616 13.7759 63.3616 13.7759C63.9926 13.9424 64.7399 14.2759 65.3543 14.6099C67.5131 15.6606 69.3397 17.0615 70.8343 18.9966ZM8.71118 27.937C9.12631 26.269 9.65771 24.6509 10.405 23.3667C11.1523 22.0991 12.1154 21.0312 13.1948 20.2974C14.2576 19.5469 15.5197 19.1299 16.9312 19.1299C18.326 19.1299 19.5051 19.4302 20.5845 20.1807C21.6306 20.9146 22.4942 21.8486 23.2415 23.0498C23.9887 24.334 24.5201 25.7183 24.9519 27.4199C25.3836 29.1211 25.6161 30.8389 25.6161 32.7573L25.5829 33.3911C25.5829 35.3091 25.3836 37.2271 25.0515 38.9287C24.6364 40.6465 24.0883 42.1309 23.3411 43.4321C22.6104 44.6997 21.6473 45.6504 20.5845 46.4009C19.5217 47.1514 18.2264 47.4683 16.8481 47.4683C15.4366 47.4683 14.158 47.1348 13.0786 46.4009C12.0158 45.6504 11.0526 44.6997 10.3054 43.3984C9.64111 42.3477 9.14294 40.8633 8.69458 39.062C8.26282 37.3442 8.14658 35.3926 8.14658 33.4912C8.14658 31.5728 8.26282 29.6548 8.67795 27.9536L8.71118 27.937ZM49.1302 27.937C49.562 26.269 50.0934 24.6509 50.8406 23.3667C51.5879 22.0991 52.5511 21.0312 53.6138 20.2974C54.6932 19.5469 55.9719 19.1299 57.3502 19.1299C58.7451 19.1299 59.9241 19.4302 61.0035 20.1807C62.0663 20.9146 62.9132 21.8486 63.6605 23.0498C64.4078 24.334 64.9391 25.7183 65.3709 27.4199C65.8193 29.1211 66.0352 30.8389 66.0352 32.7573L66.0352 33.3911C66.0352 35.3091 65.8193 37.2271 65.5038 38.9287C65.072 40.6465 64.5406 42.1309 63.7933 43.4321C63.0461 44.6997 62.0829 45.6504 61.0035 46.4009C59.9407 47.1514 58.6787 47.4683 57.2672 47.4683C55.8723 47.4683 54.6102 47.1348 53.5308 46.4009C52.4514 45.6504 51.4883 44.6997 50.741 43.3984C49.9771 42.1309 49.4457 40.6465 49.014 38.9287C48.5988 37.2271 48.4826 35.3091 48.4826 33.3911C48.5988 31.5562 48.8147 29.6548 49.1468 27.9536L49.1302 27.937Z" clip-rule="evenodd" fill="#FFFFFF" fill-opacity="1.000000" fill-rule="evenodd"/>
</svg>
